<svg width="100" height="100" viewBox="0 0 100 100" fill="none" xmlns="http://www.w3.org/2000/svg">
<path d="M64.0038 33.8618C59.9724 37.8933 55.161 43.1313 54.5704 49.9481C55.161 56.7649 59.9726 62.003 64.0038 66.0345C69.4634 70.7392 72.9202 77.7038 72.9202 85.4763C72.9202 85.4899 72.9192 85.5034 72.919 85.5171H72.9202V96.4595H21.6108V85.5171H21.612C21.612 85.5034 21.6108 85.4899 21.6108 85.4763C21.6108 77.7038 25.0677 70.7392 30.5272 66.0345C34.5587 62.003 39.37 56.7649 39.9606 49.9481C39.37 43.1313 34.5585 37.8933 30.5272 33.8618C25.0677 29.1571 21.6108 22.1925 21.6108 14.42V3.31299H72.9202V14.42C72.9202 22.1925 69.4634 29.1571 64.0038 33.8618Z" fill="#F9E7C0"/>
<path d="M47.2657 83.4968C49.1753 83.4968 58.8821 94.0616 58.8821 94.0616H35.6493C35.6493 94.0616 45.3562 83.4968 47.2657 83.4968ZM46.2403 69.4688C46.0876 69.4669 45.936 69.4952 45.7943 69.5523C45.6526 69.6094 45.5237 69.694 45.415 69.8013C45.3063 69.9086 45.22 70.0364 45.1611 70.1774C45.1021 70.3183 45.0718 70.4695 45.0718 70.6223C45.0718 70.775 45.1021 70.9262 45.1611 71.0672C45.22 71.2081 45.3063 71.3359 45.415 71.4432C45.5237 71.5505 45.6526 71.6352 45.7943 71.6922C45.936 71.7493 46.0876 71.7777 46.2403 71.7757C46.5436 71.7717 46.8332 71.6485 47.0463 71.4326C47.2594 71.2167 47.3788 70.9256 47.3788 70.6223C47.3788 70.3189 47.2594 70.0278 47.0463 69.8119C46.8332 69.5961 46.5436 69.4728 46.2403 69.4688ZM47.3939 73.5702C47.2411 73.5682 47.0895 73.5966 46.9478 73.6537C46.8061 73.7107 46.6772 73.7954 46.5685 73.9027C46.4598 74.01 46.3735 74.1378 46.3146 74.2787C46.2557 74.4197 46.2253 74.5709 46.2253 74.7236C46.2253 74.8764 46.2557 75.0276 46.3146 75.1685C46.3735 75.3095 46.4598 75.4373 46.5685 75.5446C46.6772 75.6519 46.8061 75.7365 46.9478 75.7936C47.0895 75.8507 47.2411 75.879 47.3939 75.877C47.6972 75.8731 47.9867 75.7498 48.1998 75.534C48.4129 75.3181 48.5324 75.027 48.5324 74.7236C48.5324 74.4203 48.4129 74.1292 48.1998 73.9133C47.9867 73.6974 47.6972 73.5742 47.3939 73.5702ZM44.5989 80.4552C44.4462 80.4532 44.2946 80.4816 44.1529 80.5386C44.0112 80.5957 43.8823 80.6803 43.7736 80.7876C43.6649 80.8949 43.5786 81.0228 43.5196 81.1637C43.4607 81.3046 43.4304 81.4558 43.4304 81.6086C43.4304 81.7613 43.4607 81.9126 43.5196 82.0535C43.5786 82.1944 43.6649 82.3222 43.7736 82.4295C43.8823 82.5368 44.0112 82.6215 44.1529 82.6786C44.2946 82.7356 44.4462 82.764 44.5989 82.762C44.9022 82.7581 45.1918 82.6348 45.4049 82.4189C45.618 82.203 45.7374 81.9119 45.7374 81.6086C45.7374 81.3053 45.618 81.0141 45.4049 80.7983C45.1918 80.5824 44.9022 80.4591 44.5989 80.4552ZM48.0286 64.2112C47.8759 64.2092 47.7243 64.2376 47.5826 64.2947C47.4409 64.3518 47.312 64.4364 47.2033 64.5437C47.0946 64.651 47.0082 64.7788 46.9493 64.9198C46.8904 65.0607 46.8601 65.2119 46.8601 65.3647C46.8601 65.5174 46.8904 65.6686 46.9493 65.8095C47.0082 65.9505 47.0946 66.0783 47.2033 66.1856C47.312 66.2929 47.4409 66.3775 47.5826 66.4346C47.7243 66.4917 47.8759 66.5201 48.0286 66.5181C48.3319 66.5141 48.6215 66.3909 48.8346 66.175C49.0476 65.9591 49.1671 65.668 49.1671 65.3647C49.1671 65.0613 49.0476 64.7702 48.8346 64.5543C48.6215 64.3384 48.3319 64.2152 48.0286 64.2112ZM28.1743 23.2278C28.1743 28.0161 33.5903 32.3069 36.9538 35.2054C39.4374 37.689 43.6837 42.3888 43.6837 48.2888C43.6837 48.4864 43.6931 48.6757 43.7085 48.8593C43.8333 53.679 44.4505 59.054 45.9815 60.972C45.8587 61.1223 45.7758 61.3011 45.7405 61.4919C45.7052 61.6828 45.7186 61.8794 45.7795 62.0637C45.8404 62.248 45.9468 62.414 46.0888 62.5462C46.2309 62.6784 46.404 62.7727 46.5922 62.8202C46.7804 62.8678 46.9775 62.8671 47.1653 62.8182C47.3531 62.7693 47.5256 62.6738 47.6667 62.5406C47.8078 62.4073 47.913 62.2406 47.9726 62.0559C48.0322 61.8712 48.0442 61.6745 48.0075 61.4839C50.0632 60.2196 50.7761 53.6511 50.8425 47.8651C51.194 42.8841 55.2042 37.5788 57.5776 35.2054C60.9411 32.3069 66.3571 28.0163 66.3571 23.2278C66.3571 20.8983 28.1743 20.8983 28.1743 23.2278ZM48.5911 78.2575C48.4384 78.2555 48.2868 78.2839 48.1451 78.341C48.0034 78.398 47.8745 78.4827 47.7658 78.59C47.6571 78.6973 47.5707 78.8251 47.5118 78.966C47.4529 79.107 47.4226 79.2582 47.4226 79.4109C47.4226 79.5637 47.4529 79.7149 47.5118 79.8558C47.5707 79.9968 47.6571 80.1246 47.7658 80.2319C47.8745 80.3392 48.0034 80.4238 48.1451 80.4809C48.2868 80.538 48.4384 80.5663 48.5911 80.5644C48.8944 80.5604 49.184 80.4371 49.3971 80.2213C49.6101 80.0054 49.7296 79.7143 49.7296 79.4109C49.7296 79.1076 49.6101 78.8165 49.3971 78.6006C49.184 78.3847 48.8944 78.2615 48.5911 78.2575Z" fill="#FFB636"/>
<path d="M72.9206 6.17715H21.611C20.029 6.17715 18.7466 4.89473 18.7466 3.3127C18.7466 1.73066 20.029 0.448242 21.611 0.448242H72.9206C74.5026 0.448242 75.7851 1.73066 75.7851 3.3127C75.7851 4.89473 74.5024 6.17715 72.9206 6.17715ZM75.7851 96.4594C75.7851 94.8773 74.5026 93.5951 72.9206 93.5951H21.611C20.029 93.5951 18.7466 94.8773 18.7466 96.4594C18.7466 98.0414 20.029 99.3236 21.611 99.3236H72.9206C74.5024 99.3236 75.7851 98.0414 75.7851 96.4594Z" fill="#68442A"/>
<path d="M66.3571 22.5452C66.3571 24.3179 57.8097 25.755 47.2657 25.755C36.7218 25.755 28.1743 24.3179 28.1743 22.5452C28.1743 20.7726 36.7218 19.3354 47.2657 19.3354C57.8097 19.3354 66.3571 20.7726 66.3571 22.5452Z" fill="#FFD469"/>
</svg>
