<svg width="84" height="96" viewBox="0 0 84 96" fill="none" xmlns="http://www.w3.org/2000/svg">
<path d="M83.9705 74.0003L29.9133 95.8517L0 21.8523L54.0572 0L72.5424 45.7297L76.9616 56.6628L83.9705 74.0003Z" fill="#51A5E3"/>
<path d="M45.3702 14.1328L14.7227 26.5227L15.9265 29.5005L46.574 17.1106L45.3702 14.1328Z" fill="white"/>
<path d="M47.9908 20.615L17.3433 33.0049L18.5471 35.9827L49.1946 23.5928L47.9908 20.615Z" fill="white"/>
<path d="M50.6114 27.0957L19.9639 39.4856L21.1677 42.4634L51.8152 30.0735L50.6114 27.0957Z" fill="white"/>
<path d="M53.232 33.5761L22.5845 45.9661L23.7883 48.9439L54.4358 36.554L53.232 33.5761Z" fill="white"/>
<path d="M62.5061 65.3349C60.818 66.0174 58.8967 65.2021 58.2152 63.514L53.978 53.0322C53.2955 51.344 54.1108 49.4228 55.799 48.7412C57.4871 48.0587 59.4084 48.874 60.0899 50.5622L64.3271 61.044C65.0086 62.7312 64.1934 64.6524 62.5061 65.3349Z" fill="#F15A24"/>
<path d="M67.652 69.2702C68.3345 70.9583 67.5192 72.8796 65.831 73.5611C64.1429 74.2436 62.2216 73.4284 61.5401 71.7402C60.8575 70.052 61.6728 68.1308 63.361 67.4492C65.0482 66.7667 66.9695 67.582 67.652 69.2702Z" fill="#F15A24"/>
</svg>
