<svg width="100" height="100" viewBox="0 0 100 100" fill="none" xmlns="http://www.w3.org/2000/svg">
<path d="M36.0859 21.8203V20.4609C36.0859 17.75 34.4609 17.1875 32.6797 17.5078L17.7578 20.2031C15.9688 20.5234 14.6563 22.1328 14.6563 24.0078V27.4765C14.6563 28.7422 13.7734 29.8281 12.5625 30.0469L12.2969 30.0937C11.25 30.2812 10.4766 31.2187 10.4766 32.3203L11.3203 90.1562C11.3203 90.1562 11.2578 91.0781 12.125 91.1406C13.0234 91.2031 13.7031 90.5156 14.6016 90.3047L84.6328 73.6172C85.6797 73.4297 86.4531 72.4922 86.4531 71.3906V19.8047C86.4531 18.4062 85.2344 17.3437 83.8984 17.5781L39.9063 25.1484C37.9141 25.5 36.0859 24.75 36.0859 21.8203Z" fill="#F3AB47"/>
<path d="M87.9375 71.6016L89.5156 25C89.5156 23.6016 88.2969 22.5391 86.9609 22.7735L43 30.2891C42.0061 30.4588 41.0987 30.9593 40.4251 31.7095C39.7515 32.4597 39.3511 33.4156 39.2891 34.4219L39.1094 37.3672C39.0405 38.5136 38.5851 39.6027 37.8174 40.4569C37.0498 41.3111 36.0153 41.8798 34.8828 42.0704L17.1875 45.0469C16.3382 45.1908 15.5672 45.6305 15.011 46.2882C14.4548 46.946 14.1492 47.7793 14.1484 48.6407L12.125 91.125C12.125 91.125 12.3828 91.2344 15.2812 90.5L84.9688 74.0079C86.0234 73.836 87.2266 72.8516 87.9375 71.6016Z" fill="#FFE36C"/>
<path d="M16.8984 45.8828L34.6797 42.8438C39.1328 41.8516 39.8438 40.1641 39.8359 36.6172L39.8438 35.7031C39.9844 33.0313 41.2813 31.4531 43.9141 31L87.4062 23.4609" stroke="#FFF9C4" stroke-width="0.25" stroke-miterlimit="10" stroke-linecap="round"/>
</svg>
